<?xml version="1.0" encoding="UTF-8"?>
<svg id="a" data-name="Layer 1" xmlns="http://www.w3.org/2000/svg" viewBox="0 0 82.24 20.96">
  <path d="M82.24,10.52c0-2.88-1.02-5.34-3.06-7.38-2.04-2.04-4.5-3.06-7.38-3.06s-5.34,1.02-7.38,3.06c-2.04,2.04-3.06,4.5-3.06,7.38s.99,5.24,2.95,7.26h-6.95V0h-3.18s-1.07,0-1.07,0h0s-8.18,0-8.18,0h-3.69l-9.36,15.89V0h-3.84l-9.36,15.89V0h-3.18v7.24c-.49-1.54-1.34-2.93-2.57-4.17C10.87,1.03,8.4,0,5.51,0H0v20.96h5.51c2.89,0,5.36-1.03,7.41-3.08,1.23-1.24,2.08-2.63,2.57-4.16v7.24h3.9l9.29-15.78v15.78h3.9l9.84-16.7v16.7h8.96s20.54,0,20.54,0h0c2.83-.03,5.25-1.05,7.27-3.06s3.06-4.5,3.06-7.38ZM10.68,15.64c-1.44,1.44-3.16,2.15-5.17,2.15h-2.34V3.16h2.34c2.01,0,3.74.72,5.17,2.15s2.14,3.15,2.14,5.17-.71,3.73-2.14,5.16ZM51.37,17.78h0s-5.78,0-5.78,0v-5.74h4.63l1.83-3.18h-.66s-5.8,0-5.8,0V3.18h8.58v14.6h-2.8ZM76.97,15.7c-1.43,1.43-3.16,2.15-5.18,2.15s-3.75-.72-5.18-2.15-2.15-3.16-2.15-5.18.72-3.75,2.15-5.18,3.16-2.15,5.18-2.15,3.75.72,5.18,2.15,2.15,3.16,2.15,5.18-.72,3.75-2.15,5.18Z"/>
</svg>